<svg id="OBJECTS" xmlns="http://www.w3.org/2000/svg" xmlns:xlink="http://www.w3.org/1999/xlink" viewBox="0 0 498.32 316.64"><defs><style>.cls-1{fill:#dca86e;}.cls-2{fill:url(#linear-gradient);}.cls-3{fill:#2167be;}.cls-4{fill:url(#linear-gradient-2);}.cls-5{fill:#277fd9;}.cls-6{fill:#fec4ad;}.cls-7{fill:url(#linear-gradient-3);}.cls-8{fill:#ff5e69;}.cls-9{fill:url(#linear-gradient-4);}.cls-10{fill:#f8d2a1;}.cls-11,.cls-14{fill:none;stroke-miterlimit:10;}.cls-11{stroke:#d4dbe2;stroke-width:0.25px;}.cls-12{fill:#ffba01;}.cls-13{fill:#d2dceb;}.cls-14{stroke:#a6aeba;stroke-width:0.5px;}.cls-15{fill:#50cc85;}.cls-16{fill:#77e6a6;}.cls-17{fill:#f3ba7a;}.cls-18{fill:#a6aeba;}.cls-19{fill:#b6bfcc;}.cls-20{fill:#fff;}</style><linearGradient id="linear-gradient" x1="296.53" y1="295.12" x2="325.42" y2="295.12" gradientTransform="matrix(0.81, 0.59, -0.59, 0.81, 197.77, -118.34)" gradientUnits="userSpaceOnUse"><stop offset="0" stop-color="#343a44"/><stop offset="0.3" stop-color="#232d3e"/><stop offset="0.64" stop-color="#182439"/><stop offset="1" stop-color="#142138"/></linearGradient><linearGradient id="linear-gradient-2" x1="301.41" y1="306.54" x2="330.3" y2="306.54" gradientTransform="matrix(1, 0, 0, 1, 0, 0)" xlink:href="#linear-gradient"/><linearGradient id="linear-gradient-3" x1="288.82" y1="113.28" x2="320.14" y2="113.28" gradientTransform="matrix(-0.66, -0.75, -0.75, 0.66, 739.77, 318.5)" xlink:href="#linear-gradient"/><linearGradient id="linear-gradient-4" x1="355.18" y1="216.43" x2="450.95" y2="216.43" gradientTransform="matrix(1, 0, 0, 1, 0, 0)" xlink:href="#linear-gradient"/></defs><title>404</title><polygon class="cls-1" points="422.51 245.61 455.37 316.64 459.07 316.63 430.66 241 422.51 245.61"/><polygon class="cls-1" points="388.52 247.13 355.65 316.64 351.95 316.63 380.37 245.55 388.52 247.13"/><path class="cls-2" d="M291.13,304.37,274.43,319l-19.69-13.86s6.7-2.25,18.19.81l11.76-9.88Z" transform="translate(13.89 -2.96)"/><path class="cls-3" d="M387.82,223.75s-36.91,18.92-50,24.58-57.41,50.09-57.41,50.09S286.13,310,289,308c25.05-17.91,48.13-33.94,63-39.53C381.3,257.36,389.49,255,397,246.23,397,246.23,392.6,235.76,387.82,223.75Z" transform="translate(13.89 -2.96)"/><path class="cls-4" d="M330.3,296.91l-4.81,21.67-24.07.48s4.07-5.78,15.15-10.11L320.19,294Z" transform="translate(13.89 -2.96)"/><path class="cls-5" d="M388.71,218.95s-34.34,3.7-46.86,10.45S319.37,298,319.37,298s9.72,5.28,10.93,2a450.05,450.05,0,0,1,20.48-47.15c12.34-2.25,40.91,11.65,61.57-8.69C412.35,244.11,394.49,230.5,388.71,218.95Z" transform="translate(13.89 -2.96)"/><path class="cls-6" d="M447.88,177.21a45.77,45.77,0,0,0-4,9.25l-14.12-1.3s7.29-11,6.73-17.75Z" transform="translate(13.89 -2.96)"/><path class="cls-6" d="M444.84,154.38c-.8-.21-3.82-1-4.43-.8-.85.35.14,1.46-.46,2.13-1,1.1-2.9,1.12-4.14,1.79a8.24,8.24,0,0,0-3.35,3.08c-1.15,2,3,6.53,3.69,9.91,1.37,7.07,10.31,8.12,17.57,6a12.6,12.6,0,0,0,6.4-5.37c1.66-2.66.73-7.11-.67-9.76a12.38,12.38,0,0,0-3.94-4c-1.31-.9-1.67-4.66-3.25-4.92C452.28,152.44,446.65,154.86,444.84,154.38Z" transform="translate(13.89 -2.96)"/><path class="cls-7" d="M465.12,173.37s-.24-1.19,1.8-3.12c6.78-6.38-.47-18.86-7.86-21-3.78-1.11-6.19.06-7.55-3.69.1.27-1.53,1-1.69,1.09a2.93,2.93,0,0,0-1.34,2.52c-.12,5.45,4.76,10.53,8.45,14,1.66,1.54-2.43.48-4.07.79-1.07.21-3.85,3.14-4.45,3.59,1.55,1.93,2.93.19,5,1.12,1.93.86.71,3.32-1.09,3.61a3.78,3.78,0,0,1-3.92-1.39c-1.28.69-1.48,4.83-2.48,5.91,1.38.76,9.46,2.18,11.35,2.16A8.08,8.08,0,0,0,465.12,173.37Z" transform="translate(13.89 -2.96)"/><path class="cls-8" d="M447.42,179.41c3,33-35.07,64.7-35.07,64.7s-24.83.93-23.64-25.16c0,0,1.93-4.74,17.31-18.68,10.27-9.31,17.49-23.2,24.71-22.92C450.47,178.1,447.42,179.41,447.42,179.41Z" transform="translate(13.89 -2.96)"/><path class="cls-9" d="M355.18,245.93s22.9,8.54,53.43-3,38.85-65.65,38.85-65.65L451,179s-3.4,59.66-43.59,72.63c-30.72,9.91-52.18-1.89-52.18-1.89Z" transform="translate(13.89 -2.96)"/><path class="cls-10" d="M443.75,212.4s3.66,12.67,3.86,19-2.5,27.76-2.5,27.76l5.82.74s5.17-25.56,5.29-33.9-4.69-21.86-4.69-21.86Z" transform="translate(13.89 -2.96)"/><path class="cls-8" d="M443.39,212.94c4.22,18.45,2.47,43.19,2.47,43.19l6.31.4c6.92-14.48,6.27-46.56,2.61-60.05-2.15-7.93-3.42-15.92-8.78-17.16-3.35-.77-10.25,1.68-11.18,5C432.82,191.51,441.31,203.89,443.39,212.94Z" transform="translate(13.89 -2.96)"/><path class="cls-10" d="M442.51,262.35c-1.39,2.65-2,4.6-1.2,5.27.57.46,1.48-2.11,2.58-3a8,8,0,0,1-.32,4.77c-.78,1.91-.71,3.55.74,3.69s3.82,0,4.34-1.16,1.72-6.23,2.37-7.9-.21-3.59,0-4.55-4.29-2.56-4.29-2.56c-.25.38-1.65,2.29-1.65,2.29a14.72,14.72,0,0,1-1.58,1.67A5.61,5.61,0,0,0,442.51,262.35Z" transform="translate(13.89 -2.96)"/><line class="cls-11" x1="421.94" x2="421.94" y2="44"/><circle class="cls-12" cx="408.15" cy="63.28" r="7.72" transform="translate(327.54 462.4) rotate(-85.59)"/><polygon class="cls-13" points="458.38 63.6 385.5 63.6 417.4 40.4 426.49 40.4 458.38 63.6"/><line class="cls-11" x1="78.88" x2="78.88" y2="44"/><circle class="cls-12" cx="65.08" cy="63.28" r="7.72" transform="translate(10.87 120.35) rotate(-85.59)"/><polygon class="cls-13" points="115.31 63.6 42.44 63.6 74.33 40.4 83.42 40.4 115.31 63.6"/><line class="cls-14" y1="316.29" x2="498.32" y2="316.29"/><path class="cls-15" d="M167.26,166.16a30.72,30.72,0,0,1,4.33-7.12c2.79-3.35,7-8.94,7-8.94s-2,4-4.79,8.46A34.33,34.33,0,0,1,167.26,166.16Z" transform="translate(13.89 -2.96)"/><path class="cls-15" d="M170.15,159.62a17.8,17.8,0,0,0,4.95-7.57c1.86-5.14,3.55-9.06,3.55-9.06a72.61,72.61,0,0,0-5.74,9.71C171.18,156.68,170.15,159.62,170.15,159.62Z" transform="translate(13.89 -2.96)"/><path class="cls-15" d="M167.47,165.43a64.78,64.78,0,0,0,1.94-10.58c.32-4.7.28-7.64.28-7.64s-2,8.52-2.66,12.14A11.71,11.71,0,0,0,167.47,165.43Z" transform="translate(13.89 -2.96)"/><path class="cls-15" d="M166.08,169.34a34.2,34.2,0,0,0-1.19-11.48,36,36,0,0,1-1.8-8.86,36.56,36.56,0,0,0,.15,10.56A70,70,0,0,0,166.08,169.34Z" transform="translate(13.89 -2.96)"/><path class="cls-15" d="M166.58,168s4.3-3.67,6.48-4.54a25.82,25.82,0,0,0,5.2-3.38s-3.74,4.79-5.83,5.73S166.58,168,166.58,168Z" transform="translate(13.89 -2.96)"/><path class="cls-15" d="M165.1,173.14a17.37,17.37,0,0,0-1.51-8,42,42,0,0,1-2.37-7s-.11,6.36,1.15,8.75S165.1,173.14,165.1,173.14Z" transform="translate(13.89 -2.96)"/><path class="cls-15" d="M165.5,170.73a13.91,13.91,0,0,1,4.86-2,11.7,11.7,0,0,0,3-.66,5.65,5.65,0,0,1-4.15,2.57C166.29,171,165.5,170.73,165.5,170.73Z" transform="translate(13.89 -2.96)"/><path class="cls-15" d="M163.88,176.3c.53-2.08,1.22-5.3,1.93-7.44A65.73,65.73,0,0,1,171.1,158c-2.27,5-3.94,7.88-5.08,12.23-.45,1.72-1.24,4.12-1.66,5.68C164.29,176.34,164,176.7,163.88,176.3Z" transform="translate(13.89 -2.96)"/><path class="cls-16" d="M165,167.85a32.65,32.65,0,0,0-1.89-8.65c-1.65-4.34-3.9-11.39-3.9-11.39s.67,4.7,1.88,10.16A36.49,36.49,0,0,0,165,167.85Z" transform="translate(13.89 -2.96)"/><path class="cls-16" d="M164.34,160.28A18.92,18.92,0,0,1,162,151c-.09-5.81-.43-10.33-.43-10.33a77.17,77.17,0,0,1,2.4,11.75C164.31,157,164.34,160.28,164.34,160.28Z" transform="translate(13.89 -2.96)"/><path class="cls-16" d="M165,167.05a68.86,68.86,0,0,1,1.71-11.3c1.31-4.83,2.36-7.78,2.36-7.78s-.9,9.27-1.53,13.12A12.45,12.45,0,0,1,165,167.05Z" transform="translate(13.89 -2.96)"/><path class="cls-16" d="M165.06,171.46a36.35,36.35,0,0,1,5.16-11.13,38.32,38.32,0,0,0,4.87-8.28,38.87,38.87,0,0,1-3.81,10.57A74.44,74.44,0,0,1,165.06,171.46Z" transform="translate(13.89 -2.96)"/><path class="cls-16" d="M165,169.94s-3.05-5.18-4.94-6.8a27.45,27.45,0,0,1-4.06-5.2s2.1,6.1,3.87,7.78S165,169.94,165,169.94Z" transform="translate(13.89 -2.96)"/><path class="cls-16" d="M164.74,175.62A18.46,18.46,0,0,1,169,168.1a44.64,44.64,0,0,0,4.8-6.22s-2.09,6.44-4.18,8.4S164.74,175.62,164.74,175.62Z" transform="translate(13.89 -2.96)"/><path class="cls-16" d="M165.17,173.06a14.79,14.79,0,0,0-4.2-3.68,12.43,12.43,0,0,1-2.81-1.71,6,6,0,0,0,3.28,4C164.27,173.09,165.17,173.06,165.17,173.06Z" transform="translate(13.89 -2.96)"/><path class="cls-15" d="M164.87,179.21c.18-2.28.6-5.75.63-8.15a69.86,69.86,0,0,0-1.56-12.74c.54,5.86,1.23,9.28.87,14.05-.14,1.89-.18,4.57-.3,6.28C164.44,179.11,164.66,179.59,164.87,179.21Z" transform="translate(13.89 -2.96)"/><path class="cls-15" d="M161.71,168.75a30.72,30.72,0,0,0-4.33-7.12c-2.79-3.35-7-8.94-7-8.94s2,4,4.79,8.46A34.33,34.33,0,0,0,161.71,168.75Z" transform="translate(13.89 -2.96)"/><path class="cls-15" d="M158.82,162.21a17.79,17.79,0,0,1-4.95-7.57c-1.86-5.14-3.55-9.06-3.55-9.06a72.6,72.6,0,0,1,5.74,9.71C157.78,159.27,158.82,162.21,158.82,162.21Z" transform="translate(13.89 -2.96)"/><path class="cls-15" d="M161.5,168a64.79,64.79,0,0,1-1.94-10.58c-.32-4.7-.28-7.64-.28-7.64s2,8.52,2.66,12.14A11.71,11.71,0,0,1,161.5,168Z" transform="translate(13.89 -2.96)"/><path class="cls-15" d="M162.88,171.93a34.2,34.2,0,0,1,1.18-11.48,36.06,36.06,0,0,0,1.8-8.86,36.57,36.57,0,0,1-.15,10.56A70,70,0,0,1,162.88,171.93Z" transform="translate(13.89 -2.96)"/><path class="cls-15" d="M162.38,170.59s-4.3-3.67-6.48-4.54a25.82,25.82,0,0,1-5.2-3.38s3.74,4.79,5.83,5.73S162.38,170.59,162.38,170.59Z" transform="translate(13.89 -2.96)"/><path class="cls-15" d="M163.87,175.73a17.37,17.37,0,0,1,1.51-8,42,42,0,0,0,2.37-7s.11,6.36-1.15,8.75S163.87,175.73,163.87,175.73Z" transform="translate(13.89 -2.96)"/><path class="cls-15" d="M163.47,173.32a13.91,13.91,0,0,0-4.86-2,11.71,11.71,0,0,1-3-.66,5.65,5.65,0,0,0,4.15,2.57C162.67,173.62,163.47,173.32,163.47,173.32Z" transform="translate(13.89 -2.96)"/><path class="cls-15" d="M165.08,178.89c-.53-2.08-1.22-5.3-1.93-7.44a65.72,65.72,0,0,0-5.29-10.85c2.27,5,3.94,7.88,5.08,12.23.45,1.72,1.24,4.12,1.66,5.68C164.67,178.93,165,179.29,165.08,178.89Z" transform="translate(13.89 -2.96)"/><polygon class="cls-13" points="184.44 190.45 172.77 190.45 169.16 169.9 188.46 169.9 184.44 190.45"/><polygon class="cls-1" points="317.73 196.1 336.97 316.4 340.68 316.39 325.45 196.07 317.73 196.1"/><polygon class="cls-1" points="185.09 196.15 160.03 316.58 155.04 316.59 174.69 196.18 185.09 196.15"/><rect class="cls-1" x="145.65" y="189.07" width="207.03" height="9.27"/><rect class="cls-17" x="135.72" y="189.07" width="226.88" height="6.15"/><polygon class="cls-18" points="299.15 185.82 291.1 185.82 283.05 134.45 289.17 134.45 299.15 185.82"/><polygon class="cls-13" points="296.84 185.82 265.41 185.82 257.36 134.45 288.79 134.45 296.84 185.82"/><rect class="cls-13" x="264.99" y="184.66" width="34.16" height="3.83"/><rect class="cls-18" x="299.15" y="184.66" width="43.07" height="3.83"/><path class="cls-18" d="M265.69,165.59c.91,3.93.27,8.18-1.43,9.49s-3.81-.82-4.72-4.75-.27-8.18,1.43-9.49S264.78,161.66,265.69,165.59Z" transform="translate(13.89 -2.96)"/><path class="cls-18" d="M216.8,191.27h-4.46a3.74,3.74,0,0,1-3.69-3.16l-1.78-11.47h15.4l-1.78,11.47A3.74,3.74,0,0,1,216.8,191.27Z" transform="translate(13.89 -2.96)"/><path class="cls-18" d="M220.93,188.82l-.49,0-.21,0-.17-.13c-.11-.08-2.71-2.12-2.71-5s2-5.41,4.42-5.41a4.61,4.61,0,0,1,3.59,1.52,4.68,4.68,0,0,1,.82,4h0C225.59,187,223.69,188.82,220.93,188.82Zm-.17-1.4c2.81.09,3.7-2.07,4-3.92h0a3.37,3.37,0,0,0-.52-2.86,3.22,3.22,0,0,0-2.51-1c-1.66,0-3,1.8-3,4A5.61,5.61,0,0,0,220.77,187.42Z" transform="translate(13.89 -2.96)"/><polygon class="cls-13" points="219.23 189.32 238.75 189.32 241.86 185.87 216.12 185.87 219.23 189.32"/><rect class="cls-19" x="22.39" y="114.33" width="93.4" height="202.04"/><rect class="cls-13" x="33.14" y="123.16" width="71.9" height="21.18"/><rect class="cls-20" x="59.69" y="131.18" width="18.8" height="5.14" rx="0.8" ry="0.8"/><rect class="cls-13" x="33.14" y="150.11" width="71.9" height="21.18"/><rect class="cls-20" x="59.69" y="158.14" width="18.8" height="5.14" rx="0.8" ry="0.8"/><rect class="cls-13" x="33.14" y="177.07" width="71.9" height="21.18"/><rect class="cls-20" x="59.69" y="185.1" width="18.8" height="5.14" rx="0.8" ry="0.8"/><rect class="cls-13" x="33.14" y="204.34" width="71.9" height="103.84"/><rect class="cls-20" x="59.69" y="212.36" width="18.8" height="5.14" rx="0.8" ry="0.8"/></svg>